<svg width="24" height="24" viewBox="0 0 24 24" fill="none" xmlns="http://www.w3.org/2000/svg">
<path d="M16.272 6.008C16.4934 6.38787 16.8337 6.68421 17.2405 6.85118C17.6472 7.01815 18.0976 7.04645 18.522 6.93169C18.9464 6.81693 19.3212 6.56551 19.5884 6.21633C19.8556 5.86715 20.0002 5.43966 20 5C19.9998 4.69293 19.929 4.39001 19.7929 4.11474C19.6568 3.83946 19.4592 3.59921 19.2153 3.41262C18.9714 3.22602 18.6879 3.09809 18.3866 3.03873C18.0853 2.97938 17.7744 2.9902 17.478 3.07035C17.1815 3.1505 16.9075 3.29783 16.6772 3.50092C16.4469 3.70401 16.2664 3.95741 16.1498 4.24148C16.0332 4.52555 15.9836 4.83266 16.0048 5.139C16.0259 5.44534 16.1174 5.74269 16.272 6.008ZM16.272 6.008L7.72799 10.992M7.72799 10.992C7.50649 10.6124 7.16614 10.3164 6.75953 10.1496C6.35293 9.98283 5.90271 9.95462 5.47848 10.0694C5.05424 10.1841 4.6796 10.4353 4.41247 10.7843C4.14533 11.1333 4.00058 11.5605 4.00058 12C4.00058 12.4395 4.14533 12.8667 4.41247 13.2157C4.6796 13.5647 5.05424 13.8159 5.47848 13.9306C5.90271 14.0454 6.35293 14.0172 6.75953 13.8504C7.16614 13.6836 7.50649 13.3876 7.72799 13.008M7.72799 10.992C7.90651 11.2979 8.00058 11.6458 8.00058 12C8.00058 12.3542 7.90651 12.7021 7.72799 13.008M7.72799 13.008L16.272 17.992M16.272 17.992C16.3999 17.757 16.5738 17.5501 16.7831 17.3835C16.9925 17.2169 17.2332 17.094 17.4909 17.0221C17.7486 16.9501 18.0181 16.9307 18.2835 16.9648C18.5489 16.9989 18.8047 17.0859 19.0359 17.2207C19.267 17.3555 19.4688 17.5353 19.6292 17.7494C19.7896 17.9636 19.9054 18.2078 19.9698 18.4675C20.0341 18.7272 20.0457 18.9972 20.0038 19.2614C19.9619 19.5257 19.8675 19.7789 19.726 20.006C19.4509 20.4476 19.0145 20.7646 18.5094 20.8898C18.0044 21.0149 17.4705 20.9383 17.021 20.6762C16.5715 20.4141 16.2419 19.9872 16.1021 19.486C15.9622 18.9849 16.0232 18.4489 16.272 17.992Z" stroke="black" stroke-width="1.5" stroke-linecap="round" stroke-linejoin="round"/>
</svg>
